<?xml version="1.0" encoding="UTF-8" standalone="no" ?>
<!DOCTYPE svg PUBLIC "-//W3C//DTD SVG 1.1//EN" "http://www.w3.org/Graphics/SVG/1.1/DTD/svg11.dtd">
<svg xmlns="http://www.w3.org/2000/svg" xmlns:xlink="http://www.w3.org/1999/xlink" version="1.1" width="1024" height="1024" viewBox="0 0 1024 1024" xml:space="preserve">
<desc>Created with Fabric.js 2.3.6</desc>
<defs>
</defs>
<linearGradient id="SVGID_6753" gradientUnits="userSpaceOnUse" x1="33.37451660040608" y1="52.08447641695204" x2="852.574516600406" y2="52.08447641695204">
<stop offset="0%" style="stop-color:rgb(78,247,255);stop-opacity: 1"/>
<stop offset="100%" style="stop-color:rgb(255,205,27);stop-opacity: 1"/>
</linearGradient>
<path id="icon-1" d="M 121.9 6.9 c 0 0.1 0 0.1 0.1 0 c 0.7 0 1.3 0 2 -0.1 c 0.6 -0.1 1.3 -0.1 1.9 0 v -0.1 h 0.2 c 0.7 -0.1 1.4 -0.1 2.1 0 c 0.7 0.1 1.5 0 2.2 -0.1 c 0 0 0 0.1 -0.1 0.1 h -0.1 H 134.5 c -0.2 -0.1 -0.5 -0.1 -0.8 -0.1 h -1 c 0.1 0 0.1 -0.1 0.1 -0.1 c -0.3 0 -0.7 0.1 -1.1 0 c -0.3 0 -0.6 -0.1 -1 -0.1 c 0.5 0 1 -0.1 1.5 0 c 0.3 0 0.8 0 1.4 0.1 c 0.1 0 0.2 0 0.1 -0.1 c 0 -0.1 0 -0.1 0.1 -0.1 s 0.1 0 0 0.1 s 0 0 0 0.1 c 0 0 0 -0.1 0.1 -0.1 s 0.1 0 0.1 0.1 c 0.4 0 0.8 0.1 1.1 0.2 c 0.4 0.1 0.8 0.1 1.2 0 c -0.2 0 -0.4 -0.1 -0.6 -0.1 c -0.2 0 -0.4 0 -0.6 -0.1 h 1 c 0.1 0 0.1 0 0.2 0.1 h 0.6 c 0.1 0 0.1 0 0.1 -0.1 h -0.2 c -0.1 0 -0.2 0 -0.3 -0.1 c 0.2 0 0.5 -0.1 0.8 0 h 0.7 c 0 -0.1 0 -0.1 -0.1 -0.1 h -0.2 h 1.5 c -0.1 -0.1 -0.2 -0.1 -0.1 -0.1 h 0.5 h -0.2 c -0.1 0 -0.1 0 -0.2 -0.1 h 0.1 V 6 h 0.5 c 0.1 0 0.3 0 0.4 -0.1 c 0.2 0.1 0.5 0.1 0.8 0.1 c 0.3 0 0.5 -0.1 0.8 -0.1 c 0.1 0 0.1 -0.1 0.1 -0.1 h 0.3 l -0.1 0.1 h 0.4 c 0.1 0 0.2 0.1 0.4 0 c -0.2 -0.2 -0.6 -0.5 -1 -0.6 h -0.2 h -0.2 c -0.3 -0.1 -0.6 -0.2 -1 -0.3 c -0.4 -0.1 -0.8 -0.1 -1.2 -0.2 c 0 0 0 -0.1 -0.1 -0.1 s -0.1 0 -0.1 -0.1 c -0.2 0 -0.4 0 -0.6 -0.1 c -0.2 0 -0.4 0 -0.6 -0.1 c -0.2 0 -0.5 0.1 -0.7 0 c -0.2 0 -0.4 -0.1 -0.6 -0.1 c -0.2 0 -0.4 -0.1 -0.7 -0.1 h -0.8 c -0.2 -0.1 -0.5 -0.1 -0.8 -0.1 c -0.3 0 -0.5 -0.1 -0.8 -0.1 h -1.7 l -1.8 0.3 h -1.7 c -0.6 0 -1.1 0.1 -1.7 0.1 c 0 0.1 0 0.1 0.2 0.1 s 0.2 0 0.2 0.1 h -1.6 c -0.5 0 -1 0 -1.5 -0.1 c 0 0 0.1 -0.1 0.2 -0.1 h 0.1 h -0.5 c -0.1 0.1 -0.3 0.2 -0.6 0.2 h -0.8 c 0.1 0 0.2 -0.1 0.3 -0.1 c 0.1 0 0.2 0 0.3 -0.1 h -0.4 c -0.1 0 -0.2 0.1 -0.3 0.1 c 0 -0.1 -0.1 -0.1 -0.1 -0.1 h -0.4 c -0.1 0 -0.1 0 -0.1 0.1 l -0.1 0.1 c -0.4 0.1 -0.8 0.1 -1.2 0 c -0.2 0.1 -0.4 0.1 -0.7 0.1 c -0.2 0 -0.4 -0.1 -0.6 -0.1 c -0.1 0.1 -0.3 0.1 -0.5 0.1 h -0.6 c 0 0.1 0 0.1 -0.2 0.1 H 116 s 0 -0.1 0.1 -0.1 s 0 0 0 -0.1 c -0.2 0 -0.5 0.1 -0.6 0.2 h -0.8 c 0 0.1 0.1 0.1 0.3 0.1 c 0.2 0 0.3 0 0.3 0.1 H 113.6 c 0 0.1 0 0.1 -0.2 0.2 c -0.2 0 -0.4 0.1 -0.6 0.1 c 0.1 -0.1 0.2 -0.1 0.1 -0.1 s -0.2 0 -0.2 -0.1 h 0.3 c 0.1 0 0.1 0 0 -0.1 c -0.3 0 -0.5 0 -0.8 0.1 c -0.2 0.1 -0.5 0.1 -0.6 0 h -0.4 s 0 -0.1 -0.1 -0.1 c -0.6 0.1 -1.2 0.1 -1.8 0.2 c -0.6 0 -1.2 0.1 -1.8 0.2 c -0.3 0 -0.6 -0.1 -0.8 0 c -0.3 0 -0.6 0 -0.9 0.1 l -1 0.1 h -1 s -0.1 0.1 -0.2 0 h -0.3 c 0.1 0 0.1 -0.1 0.1 -0.1 c -0.2 0 -0.4 0.1 -0.6 0 c 0 0.1 0 0.1 -0.1 0.1 h -0.3 s 0.1 -0.1 0.2 -0.1 h 0.1 c -0.1 0 -0.3 0 -0.4 0.1 c -0.1 0.1 -0.2 0.1 -0.4 0.1 c 0 0.1 0.1 0.1 0.2 0 h 0.1 c -0.3 0.1 -0.6 0.2 -1 0.2 c -0.2 0.1 -0.5 0.1 -0.9 0.1 h -1.1 c -0.4 0 -0.8 0 -1.1 0.1 c -0.1 0 -0.1 0 -0.1 -0.1 l -0.1 -0.1 l -0.3 0.1 c 0 0.1 0 0.1 0.1 0.1 h 0.1 c -0.2 0 -0.5 0.1 -0.7 0.1 h -0.7 s 0.1 -0.1 0.2 0 h 0.1 c -0.2 0 -0.4 0 -0.6 0.1 h 0.3 c 0.1 0 0.1 0 0 0.1 h -0.3 c -0.5 0.1 -1 0.1 -1.5 0.2 c -0.6 0.1 -1.2 0.1 -1.8 0.2 l -2.7 0.3 c -1 0.1 -1.9 0.2 -2.8 0.3 h -0.1 h -0.2 l -0.2 0.1 c -0.1 0 -0.2 0 -0.3 0.1 h -0.4 c -0.1 0 -0.1 0 -0.2 0.1 c -0.1 0 -0.1 0 -0.2 0.1 c -0.8 0.1 -1.6 0.2 -2.3 0.3 c -0.8 0.1 -1.5 0.2 -2.3 0.3 c -0.8 0 -1.6 0.1 -2.4 0.2 c -0.7 0.1 -1.5 0.2 -2.3 0.3 h 0 c -2 0.2 -4 0.4 -5.9 0.7 c -2 0.4 -4.1 0.6 -6 0.9 c -1 0.2 -2.1 0.3 -3.2 0.4 c -1.1 0.1 -2.2 0.3 -3.3 0.5 c -1.7 0.2 -3.4 0.4 -5 0.6 c -1.7 0.2 -3.4 0.4 -5.3 0.6 h -0.1 h -0.1 c -0.9 0.1 -1.7 0.2 -2.6 0.2 h -2.5 c -0.3 0 -0.5 -0.1 -0.8 0 c -0.3 0 -0.5 -0.1 -0.8 -0.1 l -0.9 -0.1 c -1.9 -0.3 -3.5 -0.9 -4.8 -1.6 h -0.3 c -0.1 0 -0.2 0 -0.3 -0.1 c 0 0.2 -0.2 0.3 -0.5 0.4 c -0.3 0.1 -0.5 0.2 -0.6 0.4 c -0.1 0.4 0.1 0.7 0.5 1 c 0.4 0.2 0.7 0.5 1.1 0.8 c -0.1 0.1 -0.2 0.2 -0.2 0.3 h 0.5 c 0.1 0.2 0.2 0.3 0.5 0.4 c 0.2 0.1 0.4 0.3 0.5 0.4 h 0.2 l 0.1 0.1 c 0.1 0 0.1 0 0 0.1 c 0.5 0.1 1 0.3 1.5 0.4 c 0.5 0.1 1 0.3 1.4 0.5 c 0.5 0 1 0.1 1.5 0.2 h 0.7 c 0.2 0.1 0.5 0.1 0.8 0 c 0.2 0.1 0.5 0.1 0.7 0 c 0.2 -0.1 0.5 -0.1 0.6 0 c 0.3 -0.1 0.6 -0.1 0.9 -0.1 c 0.3 0 0.6 0 0.8 0.1 c 0.5 -0.2 1.1 -0.2 1.7 -0.2 c 0.5 0 1.1 0 1.6 -0.1 c 0.1 0.1 0.2 0.1 0.3 0.1 h 0.4 c 0.1 0 0.1 -0.1 0 -0.1 s -0.1 0 0 -0.1 c 2.5 -0.2 4.9 -0.5 7.3 -0.8 c 2.3 -0.3 4.7 -0.6 7 -1 c 2.3 -0.3 4.7 -0.7 7 -1.1 c 2.3 -0.4 4.7 -0.7 7.2 -1.1 c 0.1 0 0.1 -0.1 0.1 -0.1 c 1 -0.1 2 -0.2 3 -0.4 c 0.9 -0.1 1.9 -0.3 2.8 -0.5 c 0.4 0.1 0.9 0 1.3 -0.1 s 0.8 -0.2 1.2 -0.2 c 0.3 0 0.6 -0.1 0.9 -0.1 c 0.3 0 0.6 -0.1 0.8 -0.2 c 0.3 0.1 0.7 0 0.9 -0.2 c 1 0 2 -0.2 3 -0.3 c 1 -0.2 2 -0.3 3.1 -0.3 c 0 -0.1 0 -0.1 0.1 -0.1 c 0.4 -0.1 0.9 -0.1 1.4 -0.1 c 0.4 0 0.8 -0.1 1.2 -0.2 c 0.9 -0.1 1.9 -0.2 2.8 -0.3 c 1 -0.1 1.9 -0.2 2.9 -0.2 c 0.1 0 0.1 -0.1 0 -0.1 s -0.1 0 -0.1 -0.1 c 0.6 0 1.2 0 1.8 -0.1 c 0.5 -0.1 1.1 -0.1 1.6 -0.1 c 0.1 0 0.1 0 0.1 -0.1 h 0.1 c 0.9 0 1.7 -0.1 2.6 -0.1 c 0.9 -0.1 1.6 -0.2 2.3 -0.2 c 0 -0.1 0 -0.1 -0.1 -0.1 h -0.2 c 1.6 -0.1 3 -0.3 4.4 -0.3 c 1.4 -0.1 2.7 -0.1 4 -0.2 c -0.5 0.1 -0.8 0.2 -1 0.2 h -1.6 c -0.3 0 -0.6 0 -0.8 0.1 c -0.1 -0.1 -0.3 -0.1 -0.5 0 s -0.5 0.1 -0.7 0 c 0.4 0.1 0.8 0.1 1.2 0 c 0.4 0 0.8 -0.1 1.1 -0.1 c 0.2 0.1 0.5 0.1 0.7 0 h 0.7 c 0.4 -0.1 0.9 -0.1 1.3 -0.1 s 0.9 0 1.3 -0.1 c 0.2 0 0.2 0.1 0.2 0.1 z m 16.7 -0.6 c 0.1 0 0.3 0.1 0.4 0 c 0 0.1 0 0.1 -0.2 0.1 h -0.3 l 0.1 -0.1 z m -2.1 0.3 h 0.2 h -0.2 z m -0.2 0 h -0.1 h 0.1 z m -56.4 4.5 h -0.1 h -0.1 c 0 -0.1 0 -0.1 0.2 0 c 0 -0.1 0.1 -0.1 0 0 z m 7.6 -2.4 c 0.1 0 0.1 0 0 0 c 0 0.1 -0.1 0 -0.1 0 h 0.1 z m -0.5 0 h 0 z m -5.5 2.1 h -0.3 s -0.1 0.1 -0.3 0.1 c 0.1 -0.1 0.2 -0.1 0.3 -0.1 c 0 0 0.1 -0.1 0.3 0 c 0 -0.1 0 0 0 0 z m 1 -0.1 s 0 -0.1 0.1 -0.1 h 0.3 s -0.1 0.1 -0.4 0.1 z m 0.3 -0.5 h 0.2 c 0 -0.1 -0.1 0 -0.2 0 z m 0.2 0.4 c 0 -0.1 0.1 -0.1 0.2 -0.1 c 0 0 0 0.1 -0.2 0.1 z m 0.5 -0.1 h -0.2 c 0.1 -0.1 0.2 -0.1 0.2 0 c 0.1 0 0.1 0 0 0 z m 0.5 0 h -0.2 c 0.1 0.1 0.1 0.1 0 0 c -0.1 0 -0.1 -0.1 0 0 v -0.1 h 0.8 c -0.1 0 -0.3 0.1 -0.6 0.1 z m 1.2 -0.2 c 0.1 -0.1 0.1 -0.1 0.1 0 h -0.1 z m 0.3 -0.1 h -0.2 c 0 -0.1 0.1 -0.1 0.2 0 c -0.1 -0.1 0 -0.1 0 0 c 0 0 0.1 0 0.1 -0.1 c 0 0.1 -0.1 0.1 -0.1 0.1 z m 0.4 0 h -0.1 v -0.1 l 0.1 0.1 z m 0.3 -0.5 c -0.2 0 -0.4 0 -0.6 0.1 h -0.4 c -0.2 0.1 -0.4 0.1 -0.6 0.1 c 0.3 -0.1 0.6 -0.1 0.9 -0.2 c 0.4 -0.1 0.7 -0.1 1.1 -0.2 c 0 0.1 -0.2 0.2 -0.4 0.2 z m 0.9 0.3 h -0.6 c 0.1 -0.1 0.3 -0.1 0.4 -0.1 h 0.6 c 0 0.1 -0.2 0.1 -0.4 0.1 z m 0.6 -0.5 h -0.2 c 0.1 0 0.1 -0.1 0.1 -0.1 l 0.1 0.1 c -0.1 0 -0.1 0 0 0 z m 35.1 -2.7 c -0.3 0 -0.6 0 -0.8 -0.1 c 0.2 -0.1 0.5 -0.1 0.8 -0.1 h 0.9 c -0.3 0.2 -0.6 0.2 -0.9 0.2 z m 2.1 -0.1 h -1.1 c 0.2 0 0.5 -0.1 0.7 -0.1 c 0.3 0 0.5 0 0.8 -0.1 c 0.1 0.1 0.3 0.1 0.4 0 c 0.1 0 0.2 0 0.3 0.1 l -1.1 0.1 z m 2.4 0.1 c 0.1 -0.1 0.1 -0.1 0.1 0 h -0.1 z m -0.5 -0.1 h -0.7 c 0.2 0 0.5 -0.1 0.7 -0.1 c 0.2 -0.1 0.5 0 0.6 0.1 h -0.6 z m 2.3 0 c -0.5 0 -1 0 -1.5 -0.1 v -0.1 h 2.8 c -0.4 0.2 -0.8 0.3 -1.3 0.2 z m 4.4 -0.1 c -0.2 0 -0.2 0 -0.2 -0.1 c 0.1 0 0.1 0 0.2 0.1 c 0 -0.1 0 -0.1 0 0 c 0.2 0 0.2 0 0 0 z m 2 -0.2 c 0.1 0 0.2 0 0.3 0.1 c -0.1 -0.1 -0.3 0 -0.4 0 c -0.1 0.1 -0.2 0 -0.3 -0.1 h 0.4 z m -1 -0.9 s 0 0.1 -0.1 0.1 h -0.2 l 0.3 -0.1 z m -0.8 0 c -0.1 0.1 -0.1 0 0 0 c 0 -0.1 0 -0.1 0 0 z m -0.2 -0.8 c 0.1 0 0.1 0 0.2 0.1 c -0.1 0 -0.2 0 -0.2 -0.1 c -0.2 0.1 -0.2 0.1 -0.3 0 h 0.3 z m -1.3 -0.1 c 0 0.1 0 0.1 0 0 l -0.3 0.1 s 0.2 -0.1 0.3 -0.1 z m -0.4 0.4 s 0.1 0 0 0 c 0.2 0 0.5 0.1 0.7 0 c 0.3 -0.1 0.6 -0.1 0.8 -0.1 c -0.3 0.1 -0.5 0.1 -0.8 0.2 c -0.2 0.1 -0.5 0 -0.7 -0.1 z m -3 0 h 0.3 c 0.3 0 0.6 -0.1 0.8 0 c 0.2 0 0.5 0 0.7 -0.1 c 0.1 0.1 0.2 0.1 0.4 0.1 h 0.1 c 0.1 0 0.3 -0.1 0.4 -0.1 c 0 0.1 0 0.1 -0.2 0.2 c -0.1 0 -0.2 0 -0.3 0.1 h -0.1 s -0.1 0 -0.1 -0.1 c -0.2 0.1 -0.6 0.1 -0.9 0.1 c -0.4 -0.1 -0.7 -0.1 -1.1 0 c -0.2 -0.2 -0.1 -0.2 0 -0.2 z m 2.1 0.9 h -0.1 h 0.1 z m -2.1 -0.6 h 0.3 c 0 0.1 0 0.1 -0.1 0.1 h -0.3 c -0.1 -0.1 0 -0.1 0.1 -0.1 z m -0.5 0 c 0.1 0 0.2 0 0.3 -0.1 c 0.1 0.1 0 0.1 -0.1 0.1 h -0.4 h 0.2 z m -0.4 -0.4 h 0.2 c 0 0.1 0 0.1 -0.2 0 c 0 0.1 0 0.1 0 0 z m 0 0.4 c -0.1 0.1 -0.3 0.1 -0.4 0.1 c -0.2 0 -0.4 0 -0.4 -0.1 h 0.8 z m -0.1 -0.3 h -0.3 c 0 -0.1 0.1 -0.1 0.3 0 c 0.1 -0.1 0.1 0 0 0 z m -0.1 -0.5 h -0.2 h 0.2 z m -0.8 0.6 c 0.1 0 0.1 0 0.1 -0.1 c 0.2 0 0.3 0 0.3 -0.1 c 0.1 0 0.2 0 0.1 0.1 v 0.1 c -0.1 0 -0.3 0.1 -0.4 0.1 h -0.4 c 0.1 0 0.2 -0.1 0.3 -0.1 z m 0.1 0.3 c -0.1 0 -0.1 0 -0.1 -0.1 h 0.1 v 0.1 c 0.1 0 0.1 0 0 0 z m -0.2 -0.1 h -0.1 h -0.1 c -0.1 0 0 -0.1 0.2 0 z m -0.6 -0.2 h 0.4 c 0 0.1 0 0.1 -0.2 0.1 h -0.3 c -0.1 0 0 0 0.1 -0.1 z m 0.3 0.3 s -0.1 0 0 0 h -0.2 s 0.1 0 0.1 -0.1 c 0.1 0 0.1 0 0.1 0.1 z m -0.4 -0.1 s 0 0.1 -0.1 0.1 h -0.2 l 0.3 -0.1 z m -0.3 -0.1 c 0.1 0 0.2 0 0.2 0.1 c -0.1 -0.1 -0.2 -0.1 -0.2 -0.1 z m -1.3 -0.4 h 0.4 c 0.1 0 0.1 0 0.1 -0.1 c 0.1 0 0.2 0 0.1 0.1 c -0.1 0 -0.2 0.1 -0.3 0.1 h -0.4 c 0 -0.1 0 -0.1 0.1 -0.1 z m -0.4 0.3 c 0.1 0 0.3 0 0.4 -0.1 h -0.1 c -0.1 0 -0.2 0 -0.3 0.1 c 0.4 -0.1 0.7 -0.2 1.1 -0.2 h 0.9 c -0.2 0.1 -0.5 0.1 -0.8 0.1 h -0.8 H 124.8 c -0.1 0.1 -0.3 0.1 -0.5 0.1 s -0.4 0 -0.6 0.1 c 0.1 -0.1 0.2 -0.1 0.4 -0.1 z m 1.2 0.5 c -0.1 0 -0.1 0 0 0 c 0.2 0 0.2 0 0 0 z m 0.1 -0.4 h -0.3 s 0 -0.1 0.1 -0.1 c 0 0 0.1 0 0.1 -0.1 c 0 0 0.1 0.1 0.1 0.2 c 0 -0.1 0.1 -0.1 0.1 -0.1 s 0 0.1 -0.1 0.1 z m 0.4 0 c 0 0.1 -0.1 0.1 -0.3 0.1 c 0 0 0.1 -0.1 0.3 -0.1 z m -1.6 0.1 h -0.2 v -0.1 l 0.2 0.1 z m -0.6 -0.3 h -0.1 h 0.1 z m -0.8 0.1 c 0.2 0 0.3 0 0.2 -0.1 h 0.2 v 0.1 s -0.2 0.1 -0.4 0 c -0.1 0.1 -0.2 0.1 -0.4 0.2 c 0.1 -0.2 0.2 -0.3 0.4 -0.2 z m 0.3 1 s -0.1 0.1 -0.2 0 h 0.2 z m -1.1 -0.6 h 0.4 s -0.1 0.1 -0.1 0 h -0.3 z m -0.6 -0.1 h -0.1 c 0.1 0.1 0.1 0 0.1 0 z m 0.1 0.8 h -0.1 h 0.1 z m -1.3 -1.5 h 0.3 c -0.1 0 -0.2 0.1 -0.4 0.1 s -0.3 0 -0.4 -0.1 h 0.5 z m 0.2 0.4 h 0.8 c -0.1 0.1 -0.3 0.2 -0.6 0.2 c -0.2 0 -0.5 0 -0.7 0.1 c 0 0 0 -0.1 0.1 -0.1 s 0.1 0 0.1 -0.1 h -0.5 c 0.2 -0.1 0.5 -0.1 0.8 -0.1 z m 0.5 0.4 c -0.2 0 -0.2 0 -0.1 -0.1 c 0 0 0.1 0 0.1 0.1 c 0.2 -0.1 0.2 -0.1 0.1 -0.1 c 0.1 0.1 0 0.1 -0.1 0.1 z m -1.6 -0.1 c 0.1 0 0.2 0 0.2 0.1 c -0.1 0 -0.2 0 -0.2 -0.1 c -0.1 0.1 -0.2 0.1 -0.2 0.1 c -0.1 -0.1 0 -0.1 0.2 -0.1 z m -0.3 1 h 0.3 s -0.1 0.1 -0.4 0.1 c 0 -0.1 0 -0.1 0.1 -0.1 z m -0.7 -0.9 h 0.6 c -0.1 0.1 -0.2 0.1 -0.4 0.1 h -0.6 c 0 -0.1 0.2 -0.2 0.4 -0.1 z m -0.7 -0.1 H 117.9 s -0.1 0.1 -0.2 0.1 c 0 0 -0.1 0 -0.1 -0.1 z m 0.2 1.1 h -0.1 h 0.1 z m -0.1 -0.9 h -0.2 s 0.1 -0.1 0.2 0 z m -0.2 0.8 s -0.1 0.1 -0.2 0.1 c 0 -0.1 0.1 -0.1 0.2 -0.1 z m -0.9 -0.8 h 0.3 c 0 0.1 -0.1 0.1 -0.2 0.1 h -0.3 c 0 -0.1 0.1 -0.1 0.2 -0.1 z m -1.1 -0.2 c 0.1 0 0.2 0.1 0.3 0 c 0.1 0 0.2 0 0.1 0.1 c -0.2 0 -0.5 0 -0.6 0.1 c -0.2 0.1 -0.4 0 -0.5 -0.1 c 0.5 0 0.8 0 0.7 -0.1 z m 0.3 0.3 l -0.1 0.1 c -0.1 0 -0.1 0 -0.1 -0.1 h 0.2 z m -0.5 0 c -0.1 0.1 -0.1 0.1 0 0 z m -0.4 0 s 0 0.1 0 0 c -0.1 0.1 -0.1 0.1 -0.1 0 c -0.1 0 -0.1 0 -0.1 -0.1 c 0 0.1 0.1 0.1 0.2 0.1 c -0.1 0 0 0 0 0 z m -0.2 -0.2 c 0.1 0.1 0 0.1 0 0 c -0.2 0.1 -0.3 0.1 -0.3 0.1 c 0.1 -0.1 0.2 -0.1 0.3 -0.1 z m -1.1 -0.1 h 0.2 c 0 0.1 -0.1 0.1 -0.2 0 c 0 0.1 -0.1 0.1 -0.2 0.1 c 0.1 0 0.1 -0.1 0.2 -0.1 z m -0.7 0.1 h -0.1 h 0.1 z m 0.1 0.4 c 0.1 0 0.2 0 0.3 -0.1 c -0.1 0.1 -0.1 0.1 -0.3 0.1 c 0 0 -0.2 0 -0.2 0.1 c 0 -0.1 0.1 -0.1 0.2 -0.1 z m -0.3 -0.4 s 0 0.1 -0.2 0.1 c 0 -0.1 0.1 -0.1 0.2 -0.1 z m -0.7 0.1 h 0.2 v 0.1 l -0.2 -0.1 c -0.1 0 -0.1 0 0 0 z m -0.3 0.3 h -0.4 h 0.3 c 0.2 -0.1 0.2 -0.1 0.1 0 z m -0.4 -0.6 c 0.1 0 0.1 0 0.1 0.1 h -0.3 c 0 -0.1 0.1 -0.1 0.2 -0.1 z m -0.4 0.6 c 0.1 0 0.2 -0.1 0.3 -0.1 c 0.1 0 0.1 0.1 0 0.1 h -0.3 z m 0.2 0.1 c -0.1 0 -0.2 0 0 0 c -0.1 0 0 0 0 0 c 0.1 0 0 0 0 0 z m -1.9 0.3 h 1.1 c 0 0.1 -0.2 0.1 -0.3 0.1 c -0.1 0 -0.3 0 -0.4 -0.1 c -0.3 0 -0.5 0 -0.8 0.1 c -0.2 0.1 -0.5 0.1 -0.7 0.1 c 0.3 -0.2 0.7 -0.3 1.1 -0.2 z m -0.4 -0.3 c 0.1 0 0.2 0 0.3 -0.1 c 0.1 0 0.2 -0.1 0.3 -0.1 c 0 0.1 -0.1 0.2 -0.2 0.2 h -0.4 z m 1.2 0.2 l 0.2 -0.1 s 0 0.1 -0.2 0.1 z m 0.2 -0.1 l -0.1 -0.1 c 0.2 0 0.3 0 0.4 -0.1 h 0.2 c -0.1 0 -0.2 0.1 -0.3 0.1 c 0 0 -0.1 0 -0.2 0.1 z m 0.6 -0.7 l 0.1 -0.1 v 0.1 h -0.1 z m 0.2 0.1 c 0.1 -0.1 0.1 -0.1 0.1 0 s -0.1 0.1 -0.1 0 z m 0.1 -0.3 s 0 0.1 -0.1 0.1 h -0.4 c 0.1 -0.1 0.3 -0.1 0.5 -0.1 z m -0.6 0 s 0 0.1 -0.2 0.1 c 0 0 0.1 -0.1 0.2 -0.1 z m -0.5 0.1 c 0 0.1 0 0.1 -0.1 0 c 0.1 -0.1 0.1 -0.1 0.1 0 z m -0.1 0.4 c 0.2 0 0.4 0 0.5 -0.1 h 0.1 v 0.1 h -0.1 s -0.1 0 -0.1 0.1 h -0.1 h -0.2 l -0.1 -0.1 z m 0.1 0.2 h -0.1 c 0 0.1 0.1 0 0.1 0 z m -0.5 0.1 c 0 -0.1 0.2 -0.1 0.3 -0.2 c 0 0.1 -0.1 0.1 -0.3 0.2 z m -3.9 -0.3 h 0.1 v 0.1 l -0.1 -0.1 z m -0.4 0 h 0.2 s 0 0.1 -0.1 0.1 s -0.1 -0.1 -0.1 -0.1 z m -1.1 0.1 h 0.3 c 0.1 0 0.2 0 0.2 -0.1 h 0.2 c -0.1 0.1 -0.3 0.1 -0.4 0.1 c 0 0.1 -0.1 0.1 -0.3 0 c 0 0.1 -0.1 0.1 -0.3 0.1 c 0.2 -0.1 0.3 -0.1 0.3 -0.1 z m -0.3 0 s -0.1 0.1 -0.2 0.1 c 0.1 0 0.1 -0.1 0.2 -0.1 z m -0.2 0.8 c 0.2 0 0.4 0 0.5 -0.1 c 0.1 -0.1 0.3 -0.1 0.4 0 c 0.1 0 0.2 0 0.3 -0.1 c 0 0 0.1 0.1 0.2 0 H 105.6 s 0 -0.1 -0.1 0 h -0.1 c 0.4 0 0.7 -0.1 1.1 -0.1 c 0.4 -0.1 0.7 -0.1 1 -0.2 l -0.1 0.1 c 0.3 -0.1 0.6 -0.2 1 -0.2 c 0.4 -0.1 0.8 -0.1 1.2 0 c -0.2 0 -0.4 0.1 -0.6 0.1 c -0.2 0.1 -0.4 0.1 -0.6 0 c 0 0.1 -0.1 0.1 -0.2 0.1 s -0.2 0 -0.3 0.1 h 0.2 c 0.1 0 0.1 0 0.1 0.1 c -0.4 0 -0.8 0 -1.1 0.1 c -0.4 0.1 -0.8 0.1 -1.3 0.2 h 1 c -0.2 0.1 -0.4 0.1 -0.6 0.1 l -0.7 0.1 c -0.2 0 -0.5 0.1 -0.7 0.1 c -0.2 0 -0.4 0.1 -0.5 0.1 h -0.5 l -0.4 0.1 h -0.4 c 0 -0.1 0.1 -0.1 0.2 -0.2 c 0.1 0 0.2 -0.1 0.1 -0.1 c 0.2 -0.4 0.3 -0.4 0.3 -0.3 z m 3.5 -0.2 c 0.1 -0.1 0.3 -0.1 0.5 -0.1 h 0.6 c -0.1 0.1 -0.3 0.1 -0.5 0.1 c -0.3 -0.1 -0.5 -0.1 -0.6 0 z m 0.4 0.3 c -0.1 0 -0.2 0 -0.1 -0.1 l 0.1 0.1 c 0.1 0 0.1 0 0 0 z m -2.8 0.1 h 0.2 v 0.1 l -0.2 -0.1 c 0.1 0.1 0.1 0.1 0 0 z m -2.6 -0.1 c 0.2 0 0.4 0 0.6 -0.1 c 0.2 0 0.4 -0.1 0.5 -0.1 c -0.1 0.1 -0.3 0.2 -0.5 0.2 c -0.2 0.2 -0.5 0.1 -0.6 0 z m 0.6 0.2 s -0.1 0.1 0 0 c -0.1 0.1 -0.1 0.1 -0.2 0.1 v -0.1 h 0.2 z m -0.3 0.1 h -0.4 s 0 -0.1 0.1 0 h 0.1 c 0.2 -0.1 0.2 -0.1 0.2 0 z m 0.7 -0.1 c 0.1 0 0.2 0.1 0 0 c 0 0.1 -0.1 0.1 -0.3 0.1 c 0.1 -0.1 0.2 -0.1 0.3 -0.1 z m -1 -0.8 c 0.1 0 0.2 0 0.2 -0.1 h 0.5 c 0.2 0 0.4 -0.1 0.6 -0.1 c 0 0.1 -0.2 0.1 -0.3 0.1 c -0.2 0 -0.3 0 -0.4 0.1 h -0.8 h 0.2 z m 0.1 0.5 h 0.9 c -0.3 0 -0.6 0.1 -0.9 0 c -0.2 0.1 -0.5 0.1 -0.8 0.2 c 0.2 -0.2 0.5 -0.2 0.8 -0.2 z m -1.4 0.5 c 0 0.1 -0.1 0.1 -0.1 0.1 h -0.1 h -0.1 c 0 -0.1 0.2 -0.1 0.3 -0.1 z m -0.3 0.8 s -0.1 0.1 -0.2 0.1 c 0.1 -0.1 0.1 -0.1 0.2 -0.1 z m -0.1 -1 l -0.1 -0.1 c 0.1 0 0.2 0.1 0.3 0.1 h -0.2 c 0 0.1 -0.1 0.1 -0.2 0.1 c 0.1 -0.1 0.1 -0.1 0.2 -0.1 z m -0.3 -0.7 h -0.1 h 0.1 z m -0.1 0.8 h -0.1 h 0.1 z m -3.1 0.2 c 0.1 0 0.2 0 0.2 -0.1 c 0.4 0 0.8 0 1.1 -0.1 c 0.4 0 0.7 -0.1 1.1 -0.1 c 0.1 -0.1 0.3 -0.1 0.4 -0.1 c 0.1 0.1 0.1 0.2 -0.1 0.2 c -0.1 0 -0.2 0.1 -0.4 0.1 c -0.5 0 -0.9 0 -1.4 0.1 c -0.4 0.1 -0.9 0.1 -1.3 0.2 c 0.1 -0.1 0.2 -0.2 0.4 -0.2 z m 2.7 0.1 c 0 0.1 -0.1 0.1 -0.2 0.1 h -0.3 c 0 -0.1 0.1 -0.1 0.2 -0.1 h 0.3 z m -0.9 0 c 0 0.1 -0.2 0.2 -0.4 0.2 h -0.1 c -0.3 0 -0.6 0 -0.8 0.1 c 0.1 -0.1 0.4 -0.2 0.6 -0.1 c 0.2 -0.1 0.5 -0.1 0.7 -0.2 z m -2 1.1 h -0.4 c 0 -0.1 0.1 -0.1 0.2 -0.1 c 0.2 0 0.2 0 0.2 0.1 z m -0.3 -1 l 0.1 -0.1 v 0.1 h -0.1 z m -0.6 0.3 h 0 c -0.1 0 -0.1 0 0 0 z m -1.7 -0.1 h 0.1 v 0.1 c 0.2 0 0.3 0 0.4 -0.1 c 0.1 0 0.2 0 0.4 -0.1 c 0 0 0 0.1 -0.2 0.1 s -0.4 0.1 -0.6 0.1 v -0.1 c -0.1 0.1 -0.1 0 -0.1 0 z m -0.3 0.3 h 0.2 s -0.1 0.1 -0.2 0 c -0.1 0 -0.1 0 0 0 z m -0.2 -1.2 c -0.1 0 -0.1 0 -0.1 -0.1 l 0.1 0.1 z M 93.3 8 c -0.1 0.1 -0.1 0.1 0 0 c 0.1 0 0.1 0 0 0 z m -0.7 -0.3 c 0.2 0 0.5 0 0.6 -0.1 c 0.2 0.1 0.1 0.1 -0.1 0.1 s -0.4 0 -0.5 0.1 h 0.2 c 0.1 0 0.1 0 0.1 0.1 c -0.1 0 -0.2 0 -0.3 0.1 l -0.2 0.1 l -0.1 -0.1 c -0.1 0 -0.1 0 -0.2 -0.1 c 0 -0.1 0.2 -0.2 0.5 -0.2 z m -4.4 1.7 s 0 -0.1 0 0 l 0.2 -0.1 c 0 0.1 -0.1 0.1 -0.2 0.1 z m 0.4 0.4 c -0.1 0 -0.2 0 -0.2 -0.1 h 0.3 c 0.1 0 0 0.1 -0.1 0.1 z m 1.3 -0.1 c 0.1 -0.1 0.2 0 0.2 0 h -0.2 z m 0.6 -0.4 c 0.1 -0.1 0.1 -0.1 0.1 0 s 0 0.1 -0.1 0 z m 0.4 0.1 h 0 z m 0.3 0.1 c 0 -0.1 0 -0.1 0 0 z m -0.3 -0.4 c 0.1 -0.1 0.3 -0.1 0.4 -0.1 c -0.1 0 -0.3 0 -0.4 0.1 z m 0.6 -0.1 h 0.2 c 0.1 0 0 0.1 -0.2 0 z m 0 -1 c -0.1 0 -0.3 0.1 -0.4 0.1 c 0.1 -0.1 0.3 -0.2 0.4 -0.1 c 0.2 -0.1 0.3 -0.1 0.3 0 c -0.1 -0.1 -0.2 0 -0.3 0 z m 0.8 1.4 h -0.1 v -0.1 l 0.1 0.1 z m -0.3 -0.5 c 0.1 -0.1 0.3 -0.1 0.5 -0.1 h 0.6 c 0.2 0 0.4 -0.1 0.6 -0.1 c 0.2 -0.1 0.5 -0.1 0.7 -0.1 c -0.3 0.1 -0.7 0.2 -1.1 0.3 H 92 z m 1.3 0.3 h -0.1 v -0.1 l 0.1 0.1 z m 1.2 -0.1 h -0.4 c 0 -0.1 0.1 -0.1 0.2 -0.1 h 0.3 c 0.1 0.1 0.1 0.1 -0.1 0.1 z m 0.9 -0.5 c -0.3 0 -0.6 0.1 -0.9 0.1 c 0.2 -0.1 0.4 -0.1 0.7 -0.2 c 0.3 0 0.5 -0.1 0.8 -0.1 c -0.2 0.1 -0.4 0.2 -0.6 0.2 z m 0.8 -1.9 c 0.1 0 0.2 0 0.3 -0.1 c 0.1 0 0.1 0.1 -0.1 0.1 H 96 h 0.2 z m 0.5 2.1 c -0.2 0 -0.4 0 -0.5 0.1 c 0.1 0 0.1 -0.1 0.1 -0.1 h 0.5 c 0.1 -0.1 0.2 -0.1 0.4 0 h -0.5 z m 1 -0.5 c -0.1 0 -0.2 0 -0.3 0.1 c -0.1 0 -0.1 -0.1 0 -0.1 c 0 -0.1 0.1 -0.1 0.3 0 c 0.1 -0.1 0.2 -0.1 0.2 -0.1 c -0.1 0 -0.1 0.1 -0.2 0.1 z m 0.4 0 c -0.1 0 -0.2 0 -0.2 -0.1 h 0.4 l -0.2 0.1 z m 1.3 -0.3 c 0.3 -0.1 0.6 -0.1 1 -0.1 c 0 0.1 -0.1 0.1 -0.3 0.1 c -0.2 0 -0.4 0 -0.4 0.1 h -0.5 c -0.2 0 -0.4 0.1 -0.6 0.1 c 0.2 -0.1 0.5 -0.1 0.8 -0.2 z m 0.1 0.5 H 99 c 0.2 0 0.3 -0.1 0.5 0 c 0.2 -0.1 0.4 -0.1 0.6 -0.1 c -0.3 0 -0.4 0.1 -0.6 0.1 z m 1.5 -0.2 c -0.3 0 -0.6 0.1 -0.9 0.1 c 0.2 0 0.5 -0.1 0.9 -0.1 c 0.2 -0.2 0.5 -0.2 0.8 -0.1 c -0.3 0.1 -0.5 0.1 -0.8 0.1 z m 0.9 -1.3 s -0.1 0.1 -0.2 0.1 c 0 0 0.1 -0.1 0.2 -0.1 z m 1 1.2 c -0.2 0 -0.4 0.1 -0.5 0 c 0.1 -0.1 0.3 -0.1 0.5 -0.1 s 0.4 0 0.5 0.1 c -0.2 -0.1 -0.4 -0.1 -0.5 0 z m 1.7 -0.2 c -0.2 0 -0.5 0.1 -0.9 0.1 c 0.3 -0.1 0.6 -0.1 0.9 -0.1 c 0.3 -0.1 0.6 -0.1 0.8 -0.1 c -0.3 0 -0.5 0.1 -0.8 0.1 z m -0.8 -0.3 c -0.7 0 -1.3 0.1 -2 0.1 c 0.3 -0.1 0.8 -0.2 1.2 -0.2 c 0.4 0 0.7 0 1 -0.1 h 1.3 c 0.4 0 0.8 -0.1 1.3 -0.1 c 0.2 0 0.4 0.1 0.6 0.1 c 0.2 0 0.4 0 0.6 -0.1 c -0.2 0.1 -0.5 0.2 -0.8 0.2 c -0.3 0.1 -0.7 0.1 -1 0 c -0.7 0 -1.4 0.1 -2.2 0.1 z m 5.4 -0.1 c -0.3 0 -0.5 0 -0.8 0.1 c -0.3 0 -0.7 0.1 -1 0.1 c -0.4 0 -0.7 0.1 -1.1 0.1 c -0.1 0 -0.3 0.1 -0.4 0.1 c 0.6 -0.2 1.2 -0.2 1.9 -0.2 s 1.4 -0.1 2 -0.1 c -0.2 -0.2 -0.4 -0.1 -0.6 -0.1 z m 0.8 -0.1 c 0.1 -0.1 0.1 -0.1 0.1 0 s -0.1 0.1 -0.1 0 z m 10.8 -0.6 h -0.4 c -0.1 0 -0.1 0 -0.1 0.1 c 0 0 -0.1 0 -0.1 0.1 c -0.1 0 -0.3 -0.1 -0.5 -0.1 c 0.2 -0.1 0.4 -0.1 0.7 -0.1 h 0.8 c -0.1 -0.1 -0.2 0 -0.4 0 z m 0.5 0 c 0 -0.1 0 -0.1 0 0 l 0.2 -0.1 s 0 0.1 -0.2 0.1 z m -3.7 -0.2 c 0 0.1 0 0.1 -0.1 0.1 h -0.5 c 0.1 0 0.1 -0.1 0.1 -0.1 h -0.1 h -0.1 c -0.2 0 -0.5 0.1 -0.8 0.1 c -0.2 0 -0.5 0.1 -0.7 0.1 c -0.2 0 -0.3 -0.1 -0.5 -0.1 c -0.1 0.1 -0.3 0.1 -0.4 0.1 h -0.5 c -0.2 0 -0.5 0.1 -0.7 0.1 c -0.2 0 -0.5 0.1 -0.8 0.1 c -0.1 0 -0.2 0 -0.2 -0.1 c -0.3 0 -0.8 0.1 -1.3 0.1 h -1.6 c -0.2 0.1 -0.5 0.1 -0.7 0.1 c -0.3 0 -0.5 0 -0.8 0.1 c 0.6 -0.1 1.3 -0.2 2 -0.2 s 1.4 0 2.1 -0.1 c 0.1 0 0.3 -0.1 0.4 -0.1 h 0.5 c 0.1 0 0.3 0 0.3 -0.1 c 0.6 0 1.3 0 1.9 -0.1 c 0.7 -0.1 1.3 -0.1 2 -0.1 v 0.1 c 0.6 0 1.3 0 1.9 -0.1 c 0.7 -0.1 1.2 -0.1 1.6 -0.2 c 1.1 0 2.3 0 3.4 -0.1 s 2.1 -0.1 3.2 0 h 0.2 s 0 -0.1 0.1 -0.1 h 1.8 c 0.3 0 0.6 -0.1 0.9 0 c 0.3 0 0.6 0 0.9 0.1 h 0.4 c 0.5 0 1 0 1.3 0.1 h 1.2 c 0.1 0 0.3 0 0.3 0.1 h -4 c -1.3 0 -2.8 0 -4.5 0.1 c 0 -0.1 0 -0.1 0.1 -0.1 s 0.1 0 0.1 -0.1 h -0.1 l -0.1 0.1 c -1.3 0 -2.7 0 -4 0.1 c -1.5 0 -2.8 0.1 -4.2 0.1 z" style="stroke: none; stroke-width: 1; stroke-dasharray: none; stroke-linecap: butt; stroke-linejoin: miter; stroke-miterlimit: 4; fill: url(#SVGID_6753); fill-rule: nonzero; opacity: 1;" transform="translate(512 634.122212) scale(7.455294 7.455294) translate(-88.13725830020306, -9.987500000000004) " stroke-linecap="round" />
	<g id="text-1" transform="translate(508.341129 455.279507) scale(2.558459 2.558459)">
		<text xml:space="preserve" font-family="XPLOR" font-size="78.70331043098064" font-style="normal" font-weight="normal" style="stroke: none; stroke-width: 0; stroke-dasharray: none; stroke-linecap: butt; stroke-linejoin: miter; stroke-miterlimit: 4; fill: rgb(0,0,0); fill-rule: nonzero; opacity: 1; white-space: pre;" ><tspan x="-157.505" y="24.723858" >Tech-Aly</tspan></text>
	</g>
</svg>